<?xml version="1.0" encoding="utf-8"?>
<!-- Generator: Adobe Illustrator 24.0.0, SVG Export Plug-In . SVG Version: 6.00 Build 0)  -->
<svg version="1.1" id="Layer_1" xmlns="http://www.w3.org/2000/svg" xmlns:xlink="http://www.w3.org/1999/xlink" x="0px" y="0px"
	 viewBox="0 0 320 74.2" style="enable-background:new 0 0 320 74.2;" xml:space="preserve">
<style type="text/css">
	.st0{display:none;}
	.st1{fill:#FFFFFF;}
	.st2{font-family:'HelveticaNeue-Bold';}
	.st3{font-size:17.495px;}
	.st4{fill:none;stroke:#FFFFFF;stroke-width:0.4755;stroke-miterlimit:10;}
	.st5{fill:#FFFFFF;stroke:#0A61AD;stroke-miterlimit:10;}
	.st6{fill:#FFFFFF;stroke:#0A61AD;stroke-width:0.974;stroke-miterlimit:10;}
	.st7{fill:#0A61AD;}
	.st8{fill:#FFFFFF;stroke:#0A61AD;stroke-width:0.9889;stroke-miterlimit:10;}
</style>
<rect x="-0.3" y="-11.2" class="st0" width="323.1" height="99.9"/>
<text transform="matrix(1 0 0 1 96.8179 70.1338)" class="st1 st2 st3">Basic Meeting List</text>
<text transform="matrix(1 0 0 1 253.5156 69.8984)" class="st4 st2 st3">Toolbox</text>
<g>
	<path class="st5" d="M57.3,0c0.9,0.2,1.7,0.6,2.3,1.3c0.5,0.6,0.8,1.3,0.8,2.1c0,3,0,6,0,9c-1.8,0-3.6,0-5.4,0c0-2.3,0-4.6,0-7
		c-5.5,0-10.8,0-16.3,0c0,2.3,0,4.6,0,7c-1.8,0-3.6,0-5.4,0c0-0.2,0-0.4,0-0.6c0-2.6,0-5.2,0-7.9c0-2.1,1-3.4,3-3.9
		c0,0,0.1-0.1,0.1-0.1C43.5,0,50.4,0,57.3,0z"/>
	<g>
		<path class="st6" d="M1.6,65.4c0,4.8,4,8.8,8.8,8.8h73.1c4.8,0,8.8-4,8.8-8.8V34.5H1.6V65.4z"/>
		<path class="st6" d="M83.5,13.8H10.4c-4.8,0-8.8,4-8.8,8.8v10.7h90.7V22.6C92.3,17.7,88.3,13.8,83.5,13.8z"/>
		<rect x="1.1" y="33.2" class="st7" width="91.6" height="1.5"/>
	</g>
	<path class="st8" d="M25.8,39.8H15.4c-0.4,0-0.6-0.3-0.6-0.6v-4.6c0-0.3,0.3-0.6,0.6-0.6h10.4c0.4,0,0.6,0.3,0.6,0.6v4.6
		C26.4,39.5,26.1,39.8,25.8,39.8z"/>
	<path class="st8" d="M79.4,39.8H68.9c-0.3,0-0.6-0.3-0.6-0.6v-4.6c0-0.3,0.3-0.6,0.6-0.6h10.4c0.3,0,0.6,0.3,0.6,0.6v4.6
		C80,39.5,79.7,39.8,79.4,39.8z"/>
	<g>
		<g>
			<path class="st7" d="M22.6,46c0.9,0,1.8,0.1,2.5,0.2s1.4,0.4,1.9,0.8c0.5,0.4,1,0.9,1.2,1.5s0.4,1.4,0.4,2.3c0,1-0.2,1.8-0.7,2.4
				s-1.1,1.2-2,1.6c1.2,0.3,2.1,0.9,2.6,1.8s0.9,1.9,0.9,3.1c0,1-0.2,1.8-0.6,2.5c-0.4,0.7-0.9,1.3-1.5,1.7c-0.6,0.4-1.4,0.8-2.2,1
				s-1.6,0.3-2.5,0.3h-9.3V46H22.6z M22,53.7c0.8,0,1.4-0.2,1.9-0.5s0.7-0.9,0.7-1.8c0-0.5-0.1-0.8-0.2-1.1
				c-0.2-0.3-0.4-0.5-0.6-0.7s-0.6-0.3-0.9-0.3c-0.4-0.1-0.7-0.1-1.1-0.1h-4v4.5H22z M22.3,61.9c0.4,0,0.8,0,1.2-0.1
				c0.4-0.1,0.7-0.2,1-0.4c0.3-0.2,0.5-0.4,0.7-0.8c0.2-0.3,0.3-0.7,0.3-1.2c0-1-0.3-1.7-0.8-2.1c-0.6-0.4-1.3-0.6-2.2-0.6h-4.6v5.3
				H22.3z"/>
			<path class="st7" d="M38.4,46l4.5,13.2h0L47.2,46h5.9v19.2h-4V51.5h0l-4.7,13.6h-3.2l-4.7-13.5h0v13.5h-4V46H38.4z"/>
			<path class="st7" d="M61.1,46v15.6h9.4v3.6H56.8V46H61.1z"/>
		</g>
		<g>
			<g>
				<polygon class="st1" points="74.4,64.6 74.4,49 68.7,49 68.7,46.7 83.2,46.7 83.2,49 77.4,49 77.4,64.6 				"/>
				<path class="st7" d="M82.6,47.3v1.1H78h-1.2v1.2V64H75V49.6v-1.2h-1.2h-4.5v-1.1H82.6 M83.8,46.1H68.1v3.5h5.8v15.6H78V49.6h5.8
					V46.1L83.8,46.1z"/>
			</g>
		</g>
	</g>
</g>
</svg>
