<?xml version="1.0" encoding="utf-8"?>
<!-- Generator: Adobe Illustrator 25.2.0, SVG Export Plug-In . SVG Version: 6.00 Build 0)  -->
<svg version="1.1" id="Layer_1" xmlns="http://www.w3.org/2000/svg" xmlns:xlink="http://www.w3.org/1999/xlink" x="0px" y="0px"
	 viewBox="0 0 320 74.2" style="enable-background:new 0 0 320 74.2;" xml:space="preserve">
<style type="text/css">
	.st0{fill:#0A61AD;}
	.st1{opacity:0.08;clip-path:url(#SVGID_2_);}
	.st2{fill:#FFFFFF;}
	.st3{font-family:'HelveticaNeue-Light';}
	.st4{font-size:6.8654px;}
	.st5{fill:#FFFFFF;stroke:#FFFFFF;stroke-width:0.3433;stroke-miterlimit:10;}
	.st6{font-family:'HelveticaNeue-Medium';}
	.st7{font-size:31.3289px;}
	.st8{fill:#BCBEC0;}
	.st9{fill:#939598;stroke:#939598;stroke-width:0.2251;stroke-miterlimit:10;}
</style>
<g>
	<path class="st0" d="M54.97,69.91H19.78c-8.5,0-15.46-6.95-15.46-15.46V19.71c0-8.5,6.95-15.46,15.46-15.46h35.19
		c8.5,0,15.46,6.95,15.46,15.46v34.75C70.42,62.96,63.47,69.91,54.97,69.91z"/>
	<g>
		<defs>
			<path id="SVGID_1_" d="M54.97,69.91H19.78c-8.5,0-15.46-6.95-15.46-15.46V19.71c0-8.5,6.95-15.46,15.46-15.46h35.19
				c8.5,0,15.46,6.95,15.46,15.46v34.75C70.42,62.96,63.47,69.91,54.97,69.91z"/>
		</defs>
		<clipPath id="SVGID_2_">
			<use xlink:href="#SVGID_1_"  style="overflow:visible;"/>
		</clipPath>
		
			<g id="_x31_000100010001000100_01000010000010_0010001000100010001000100_01000010000010_00100010001000100010001_3_" class="st1">
			<text transform="matrix(1 0 0 1 4.2958 9.9851)"><tspan x="0" y="0" class="st2 st3 st4">1000100010001000100</tspan><tspan x="0" y="8.24" class="st2 st3 st4">01000010000010010001000100010001000100</tspan><tspan x="0" y="16.48" class="st2 st3 st4">0100001000000010</tspan><tspan x="0" y="24.72" class="st2 st3 st4">0010001000100010001000100</tspan><tspan x="0" y="32.95" class="st2 st3 st4">01000010000010</tspan><tspan x="0" y="41.19" class="st2 st3 st4">0010001000100010001000100</tspan><tspan x="0" y="49.43" class="st2 st3 st4">0100001000001000101000100010001000100</tspan><tspan x="0" y="57.67" class="st2 st3 st4">0100001000001001000010000010010001000100010001000100</tspan><tspan x="0" y="74.15" class="st2 st3 st4">00100000</tspan></text>
		</g>
	</g>
	<g>
		<g>
			<text transform="matrix(0.9 0 0 1.3 6.5985 47.679)" class="st5 st6 st7">&lt;</text>
			<text transform="matrix(0.9 0 0 1.3 50.8251 48.4026)" class="st5 st6 st7">&gt;</text>
		</g>
		<g>
			<path class="st8" d="M34.37,48.48c0.23-0.82-0.16-1.18-0.9-1.48c-0.71-0.29-1.33-0.78-1.98-1.21c-0.18-0.12-0.31-0.15-0.5-0.03
				c-0.41,0.26-0.83,0.5-1.25,0.73c-0.84,0.46-1.63,0.26-2.12-0.56c-0.61-1.03-1.22-2.07-1.8-3.12c-0.45-0.81-0.23-1.59,0.56-2.08
				c0.41-0.25,0.85-0.47,1.25-0.74c0.12-0.08,0.23-0.28,0.24-0.43c0.02-1.01,0.02-2.01,0-3.02c0-0.15-0.11-0.35-0.24-0.43
				c-0.4-0.27-0.84-0.48-1.25-0.74c-0.79-0.49-1.01-1.28-0.56-2.08c0.59-1.06,1.2-2.11,1.82-3.16c0.46-0.76,1.26-0.96,2.05-0.54
				c0.43,0.23,0.84,0.47,1.26,0.72c0.19,0.12,0.33,0.12,0.54-0.01c0.84-0.52,1.7-1.01,2.57-1.49c0.21-0.11,0.31-0.22,0.3-0.46
				c-0.02-0.51-0.02-1.03,0-1.54c0.03-0.82,0.61-1.42,1.43-1.43c1.26-0.02,2.52-0.02,3.78,0c0.81,0.02,1.37,0.59,1.42,1.39
				c0.03,0.53,0.02,1.05,0.01,1.58c-0.01,0.24,0.09,0.34,0.3,0.46c0.87,0.47,1.73,0.97,2.58,1.49c0.19,0.11,0.31,0.16,0.5,0.03
				c0.42-0.26,0.85-0.51,1.29-0.75c0.79-0.42,1.59-0.22,2.05,0.54c0.63,1.05,1.25,2.12,1.84,3.2c0.42,0.76,0.19,1.55-0.55,2.01
				c-0.42,0.26-0.87,0.49-1.28,0.76c-0.12,0.08-0.25,0.3-0.23,0.43c0.14,1.01,0.14,2.01,0,3.02c-0.02,0.13,0.11,0.35,0.23,0.43
				c0.4,0.27,0.83,0.49,1.25,0.74c0.79,0.48,1.01,1.28,0.57,2.08c-0.58,1.05-1.19,2.09-1.8,3.12c-0.49,0.82-1.28,1.02-2.11,0.56
				c-0.44-0.24-0.86-0.51-1.3-0.73c-0.11-0.05-0.3-0.04-0.41,0.03c-0.89,0.5-1.78,1-2.65,1.53c-0.12,0.07-0.24,0.25-0.25,0.38
				c-0.03,0.5,0,1-0.02,1.49c-0.03,0.95-0.61,1.52-1.56,1.52c-1.14,0.01-2.29,0-3.43,0c-1.08,0-1.64-0.57-1.65-1.66
				C34.37,48.86,34.37,48.67,34.37,48.48z M31.45,38.06c0.02,3.47,2.83,6.25,6.28,6.23c3.44-0.02,6.24-2.84,6.22-6.26
				c-0.02-3.45-2.85-6.26-6.29-6.24C34.24,31.81,31.43,34.64,31.45,38.06z"/>
		</g>
	</g>
	<g>
		<path class="st2" d="M54.2,6.81c7.38,0,13.39,6.01,13.39,13.39v33.47c0,7.38-6.01,13.39-13.39,13.39h-33.9
			c-7.38,0-13.39-6.01-13.39-13.39V20.2c0-7.38,6.01-13.39,13.39-13.39H54.2 M54.2,5.31h-33.9c-8.19,0-14.89,6.7-14.89,14.89v33.47
			c0,8.19,6.7,14.89,14.89,14.89h33.9c8.19,0,14.89-6.7,14.89-14.89V20.2C69.08,12.01,62.38,5.31,54.2,5.31L54.2,5.31z"/>
	</g>
</g>
<g>
	<path class="st2" d="M85.79,27.97l6.64,17.74h-4.05l-1.34-3.95H80.4l-1.39,3.95h-3.93l6.71-17.74H85.79z M86.02,38.86l-2.24-6.51
		h-0.05l-2.31,6.51H86.02z"/>
	<path class="st2" d="M101.97,27.97c1.11,0,2.05,0.16,2.83,0.48c0.78,0.32,1.41,0.75,1.9,1.28c0.49,0.53,0.85,1.13,1.07,1.81
		c0.22,0.68,0.34,1.38,0.34,2.11c0,0.71-0.11,1.41-0.34,2.1c-0.22,0.69-0.58,1.3-1.07,1.83c-0.49,0.53-1.12,0.96-1.9,1.28
		c-0.78,0.32-1.72,0.48-2.83,0.48h-4.1v6.36h-3.9V27.97H101.97z M100.9,36.32c0.45,0,0.88-0.03,1.29-0.1
		c0.41-0.07,0.78-0.19,1.09-0.39c0.31-0.19,0.57-0.46,0.76-0.81c0.19-0.35,0.29-0.8,0.29-1.37c0-0.56-0.1-1.02-0.29-1.37
		c-0.19-0.35-0.44-0.62-0.76-0.81c-0.31-0.19-0.68-0.32-1.09-0.39c-0.41-0.07-0.84-0.1-1.29-0.1h-3.03v5.32H100.9z"/>
	<path class="st2" d="M114.45,27.97v17.74h-3.9V27.97H114.45z"/>
	<path class="st2" d="M137.81,45.72l-3.01-12.08h-0.05l-2.96,12.08h-3.95l-4.7-17.74h3.9l2.81,12.08h0.05l3.08-12.08h3.65
		l3.03,12.23h0.05l2.91-12.23h3.83l-4.77,17.74H137.81z"/>
	<path class="st2" d="M146.53,36.51c0.31-0.84,0.76-1.55,1.34-2.14c0.58-0.59,1.28-1.04,2.09-1.37c0.81-0.32,1.72-0.48,2.73-0.48
		s1.93,0.16,2.75,0.48c0.82,0.32,1.52,0.78,2.1,1.37c0.58,0.59,1.03,1.3,1.34,2.14c0.31,0.84,0.47,1.77,0.47,2.8
		s-0.16,1.96-0.47,2.78c-0.31,0.83-0.76,1.54-1.34,2.12c-0.58,0.59-1.28,1.04-2.1,1.35c-0.82,0.31-1.74,0.47-2.75,0.47
		s-1.92-0.16-2.73-0.47c-0.81-0.31-1.51-0.77-2.09-1.35c-0.58-0.59-1.03-1.3-1.34-2.12c-0.31-0.83-0.47-1.76-0.47-2.78
		S146.22,37.34,146.53,36.51z M149.74,40.81c0.1,0.49,0.27,0.93,0.51,1.32c0.24,0.39,0.56,0.7,0.96,0.93
		c0.4,0.23,0.89,0.35,1.49,0.35c0.6,0,1.1-0.12,1.5-0.35c0.41-0.23,0.73-0.54,0.97-0.93c0.24-0.39,0.41-0.83,0.51-1.32
		c0.1-0.49,0.15-0.99,0.15-1.5s-0.05-1.02-0.15-1.52c-0.1-0.5-0.27-0.94-0.51-1.32c-0.24-0.38-0.56-0.69-0.97-0.93
		c-0.41-0.24-0.91-0.36-1.5-0.36c-0.6,0-1.09,0.12-1.49,0.36c-0.4,0.24-0.72,0.55-0.96,0.93c-0.24,0.38-0.41,0.82-0.51,1.32
		c-0.1,0.5-0.15,1-0.15,1.52S149.64,40.32,149.74,40.81z"/>
	<path class="st2" d="M165,32.87v2.39h0.05c0.17-0.4,0.39-0.77,0.67-1.11c0.28-0.34,0.6-0.63,0.97-0.87
		c0.36-0.24,0.75-0.43,1.17-0.56c0.41-0.13,0.84-0.2,1.29-0.2c0.23,0,0.49,0.04,0.77,0.12v3.28c-0.17-0.03-0.36-0.06-0.6-0.09
		c-0.23-0.03-0.46-0.04-0.67-0.04c-0.65,0-1.19,0.11-1.64,0.32c-0.45,0.22-0.81,0.51-1.08,0.88c-0.27,0.37-0.47,0.81-0.58,1.3
		c-0.12,0.5-0.17,1.04-0.17,1.62v5.79h-3.53V32.87H165z"/>
	<path class="st2" d="M175.16,27.97v9.52l4.45-4.62h4.18l-4.85,4.72l5.39,8.13h-4.27l-3.53-5.74l-1.37,1.32v4.42h-3.53V27.97H175.16
		z"/>
	<path class="st2" d="M188.54,42.52c0.16,0.27,0.36,0.5,0.61,0.67c0.25,0.17,0.53,0.3,0.86,0.39c0.32,0.08,0.66,0.12,1.01,0.12
		c0.25,0,0.51-0.03,0.78-0.09s0.52-0.15,0.75-0.27c0.22-0.12,0.41-0.29,0.56-0.5c0.15-0.21,0.22-0.47,0.22-0.78
		c0-0.53-0.35-0.93-1.06-1.19c-0.7-0.26-1.69-0.53-2.94-0.8c-0.51-0.12-1.02-0.25-1.5-0.41c-0.49-0.16-0.92-0.36-1.31-0.62
		c-0.38-0.26-0.69-0.58-0.92-0.97c-0.23-0.39-0.35-0.87-0.35-1.43c0-0.83,0.16-1.51,0.48-2.04c0.32-0.53,0.75-0.95,1.28-1.26
		c0.53-0.31,1.13-0.52,1.79-0.65c0.66-0.12,1.34-0.19,2.04-0.19c0.7,0,1.37,0.07,2.03,0.2c0.65,0.13,1.24,0.36,1.75,0.67
		c0.51,0.31,0.94,0.73,1.28,1.26s0.54,1.18,0.61,1.98h-3.36c-0.05-0.68-0.31-1.14-0.77-1.38c-0.46-0.24-1.01-0.36-1.64-0.36
		c-0.2,0-0.41,0.01-0.65,0.04c-0.23,0.02-0.44,0.08-0.63,0.16c-0.19,0.08-0.35,0.2-0.48,0.36c-0.13,0.16-0.2,0.37-0.2,0.63
		c0,0.31,0.12,0.57,0.35,0.77c0.23,0.2,0.53,0.36,0.91,0.48c0.37,0.12,0.8,0.24,1.28,0.34c0.48,0.1,0.97,0.21,1.47,0.32
		c0.51,0.12,1.01,0.26,1.5,0.42c0.49,0.17,0.92,0.39,1.3,0.66c0.38,0.27,0.69,0.61,0.92,1.02c0.23,0.41,0.35,0.91,0.35,1.5
		c0,0.85-0.17,1.55-0.51,2.12c-0.34,0.57-0.78,1.03-1.33,1.38c-0.55,0.35-1.17,0.59-1.88,0.73c-0.7,0.14-1.42,0.21-2.15,0.21
		c-0.75,0-1.47-0.07-2.19-0.22c-0.71-0.15-1.35-0.4-1.9-0.75s-1.01-0.81-1.37-1.38c-0.36-0.57-0.55-1.29-0.58-2.15h3.36
		C188.31,41.92,188.39,42.25,188.54,42.52z"/>
	<path class="st2" d="M202.45,27.97v6.68h0.07c0.45-0.75,1.02-1.29,1.71-1.63c0.7-0.34,1.37-0.51,2.04-0.51
		c0.94,0,1.72,0.13,2.32,0.39c0.61,0.26,1.08,0.61,1.43,1.07c0.35,0.46,0.59,1.01,0.73,1.67c0.14,0.65,0.21,1.38,0.21,2.17v7.9
		h-3.53v-7.26c0-1.06-0.17-1.85-0.5-2.37c-0.33-0.52-0.92-0.78-1.76-0.78c-0.96,0-1.66,0.29-2.09,0.86
		c-0.43,0.57-0.65,1.51-0.65,2.82v6.73h-3.53V27.97H202.45z"/>
	<path class="st2" d="M213.73,36.51c0.31-0.84,0.76-1.55,1.34-2.14c0.58-0.59,1.28-1.04,2.09-1.37c0.81-0.32,1.72-0.48,2.73-0.48
		s1.93,0.16,2.75,0.48c0.82,0.32,1.52,0.78,2.1,1.37c0.58,0.59,1.03,1.3,1.34,2.14c0.31,0.84,0.47,1.77,0.47,2.8
		s-0.16,1.96-0.47,2.78c-0.31,0.83-0.76,1.54-1.34,2.12c-0.58,0.59-1.28,1.04-2.1,1.35c-0.82,0.31-1.74,0.47-2.75,0.47
		s-1.92-0.16-2.73-0.47c-0.81-0.31-1.51-0.77-2.09-1.35c-0.58-0.59-1.03-1.3-1.34-2.12c-0.31-0.83-0.47-1.76-0.47-2.78
		S213.42,37.34,213.73,36.51z M216.94,40.81c0.1,0.49,0.27,0.93,0.51,1.32c0.24,0.39,0.56,0.7,0.96,0.93
		c0.4,0.23,0.9,0.35,1.49,0.35s1.1-0.12,1.5-0.35c0.41-0.23,0.73-0.54,0.97-0.93c0.24-0.39,0.41-0.83,0.51-1.32
		c0.1-0.49,0.15-0.99,0.15-1.5s-0.05-1.02-0.15-1.52c-0.1-0.5-0.27-0.94-0.51-1.32c-0.24-0.38-0.56-0.69-0.97-0.93
		c-0.41-0.24-0.91-0.36-1.5-0.36s-1.09,0.12-1.49,0.36c-0.4,0.24-0.72,0.55-0.96,0.93c-0.24,0.38-0.41,0.82-0.51,1.32
		c-0.1,0.5-0.15,1-0.15,1.52S216.84,40.32,216.94,40.81z"/>
	<path class="st2" d="M232.2,32.87v1.64h0.05c0.43-0.7,0.98-1.2,1.64-1.52c0.66-0.31,1.39-0.47,2.19-0.47
		c1.01,0,1.88,0.19,2.61,0.57c0.73,0.38,1.33,0.89,1.81,1.52c0.48,0.63,0.84,1.36,1.07,2.2c0.23,0.84,0.35,1.71,0.35,2.62
		c0,0.86-0.12,1.69-0.35,2.48c-0.23,0.8-0.58,1.5-1.06,2.11c-0.47,0.61-1.06,1.1-1.76,1.47c-0.7,0.36-1.53,0.55-2.47,0.55
		c-0.8,0-1.53-0.16-2.2-0.48c-0.67-0.32-1.22-0.8-1.65-1.43h-0.05v6.09h-3.53V32.87H232.2z M236.78,43.06
		c0.39-0.23,0.7-0.53,0.94-0.91s0.41-0.81,0.51-1.3s0.15-1,0.15-1.52c0-0.51-0.05-1.02-0.16-1.52c-0.11-0.5-0.29-0.94-0.53-1.33
		c-0.25-0.39-0.57-0.7-0.96-0.94c-0.39-0.24-0.87-0.36-1.43-0.36c-0.58,0-1.06,0.12-1.45,0.36c-0.39,0.24-0.7,0.55-0.94,0.93
		c-0.24,0.38-0.41,0.82-0.51,1.32c-0.1,0.5-0.15,1.01-0.15,1.54c0,0.51,0.05,1.02,0.16,1.52c0.11,0.5,0.28,0.93,0.52,1.3
		c0.24,0.37,0.56,0.68,0.96,0.91c0.4,0.23,0.88,0.35,1.44,0.35C235.91,43.4,236.39,43.29,236.78,43.06z"/>
</g>
<g>
	<g>
		<g>
			<path class="st2" d="M254.42,34.03c0.53,0,1,0.05,1.44,0.14c0.43,0.09,0.8,0.24,1.11,0.46s0.55,0.49,0.72,0.84
				c0.17,0.35,0.26,0.78,0.26,1.3c0,0.56-0.13,1.02-0.38,1.39c-0.25,0.37-0.63,0.68-1.12,0.91c0.68,0.2,1.19,0.54,1.52,1.03
				c0.33,0.49,0.5,1.08,0.5,1.77c0,0.56-0.11,1.04-0.32,1.44c-0.22,0.41-0.51,0.74-0.87,1c-0.37,0.26-0.78,0.45-1.25,0.57
				c-0.47,0.12-0.95,0.19-1.44,0.19h-5.35V34.03H254.42z M254.12,38.49c0.43,0,0.79-0.1,1.07-0.31c0.28-0.21,0.42-0.54,0.42-1
				c0-0.26-0.05-0.47-0.14-0.63c-0.09-0.16-0.22-0.29-0.37-0.39s-0.33-0.16-0.53-0.19c-0.2-0.04-0.41-0.05-0.63-0.05h-2.27v2.58
				H254.12z M254.25,43.18c0.24,0,0.46-0.02,0.68-0.07c0.22-0.05,0.41-0.12,0.57-0.23c0.16-0.11,0.3-0.26,0.39-0.44
				s0.15-0.42,0.15-0.71c0-0.57-0.16-0.97-0.48-1.21c-0.32-0.24-0.74-0.36-1.27-0.36h-2.64v3.03H254.25z"/>
			<path class="st2" d="M263.53,34.03l2.58,7.59h0.03l2.44-7.59h3.41v11.03h-2.27v-7.82h-0.03l-2.7,7.82h-1.87l-2.7-7.74h-0.03v7.74
				h-2.27V34.03H263.53z"/>
			<path class="st2" d="M276.55,34.03v8.99h5.38v2.04h-7.8V34.03H276.55z"/>
		</g>
		<g>
			<g>
				<path class="st2" d="M288.61,34.89v0.24h-2.41h-0.9v0.9v8.09h-0.62v-8.09v-0.9h-0.9h-2.41v-0.24H288.61 M289.51,33.99h-9.04
					v2.04h3.31v8.99h2.43v-8.99h3.31V33.99L289.51,33.99z"/>
			</g>
		</g>
	</g>
	<g>
		<g>
			<path class="st9" d="M291.76,44.14c-0.27,0.34-0.55,0.58-0.84,0.72s-0.62,0.2-0.98,0.2c-0.3,0-0.57-0.06-0.79-0.19
				s-0.41-0.29-0.55-0.5c-0.14-0.21-0.24-0.46-0.3-0.74c-0.06-0.28-0.06-0.59-0.02-0.91c0.04-0.34,0.13-0.66,0.27-0.95
				c0.13-0.29,0.3-0.54,0.5-0.74c0.2-0.21,0.43-0.37,0.68-0.48c0.25-0.11,0.52-0.17,0.81-0.17c0.27,0,0.51,0.05,0.72,0.16
				s0.39,0.26,0.52,0.46c0.13,0.2,0.23,0.44,0.28,0.73c0.05,0.29,0.06,0.62,0.02,0.99l-0.03,0.24h-3.1
				c-0.01,0.19,0.01,0.37,0.05,0.55c0.05,0.18,0.12,0.33,0.21,0.46c0.09,0.13,0.21,0.23,0.35,0.31c0.14,0.08,0.3,0.11,0.47,0.11
				c0.28,0,0.52-0.06,0.73-0.17c0.2-0.11,0.4-0.28,0.58-0.5L291.76,44.14z M291.44,42.32c0.03-0.38-0.04-0.69-0.21-0.91
				c-0.17-0.23-0.44-0.34-0.79-0.34c-0.36,0-0.66,0.11-0.91,0.34c-0.25,0.23-0.42,0.53-0.51,0.91H291.44z"/>
			<path class="st9" d="M293.22,41.55c0.03-0.2,0.04-0.39,0.05-0.57c0.01-0.18,0.02-0.34,0.04-0.49h0.62
				c-0.01,0.12-0.02,0.24-0.03,0.36c-0.01,0.12-0.02,0.24-0.04,0.37h0.02c0.05-0.11,0.13-0.21,0.22-0.31
				c0.09-0.1,0.2-0.19,0.32-0.27c0.12-0.08,0.25-0.14,0.39-0.19c0.14-0.05,0.29-0.07,0.45-0.07c0.25,0,0.46,0.04,0.64,0.13
				c0.17,0.09,0.31,0.21,0.41,0.37c0.1,0.16,0.17,0.35,0.2,0.58c0.03,0.23,0.03,0.47,0,0.74l-0.33,2.75h-0.64l0.32-2.67
				c0.04-0.37,0.01-0.67-0.11-0.89c-0.11-0.22-0.32-0.32-0.62-0.32c-0.42,0-0.74,0.16-0.97,0.48c-0.23,0.32-0.37,0.73-0.43,1.24
				l-0.27,2.17h-0.64L293.22,41.55z"/>
			<path class="st9" d="M297.79,41.06c0.23-0.23,0.49-0.41,0.77-0.52c0.28-0.11,0.56-0.17,0.84-0.17c0.57,0,0.96,0.16,1.17,0.47
				c0.21,0.31,0.28,0.78,0.2,1.42l-0.23,1.91c-0.02,0.13-0.03,0.26-0.03,0.39c-0.01,0.14-0.01,0.26,0,0.38h-0.62
				c-0.01-0.1-0.01-0.21,0-0.34c0.01-0.12,0.02-0.23,0.03-0.33h-0.02c-0.15,0.23-0.34,0.42-0.57,0.56
				c-0.23,0.15-0.49,0.22-0.78,0.22c-0.2,0-0.38-0.03-0.54-0.09c-0.16-0.06-0.31-0.14-0.42-0.25c-0.12-0.11-0.21-0.25-0.26-0.41
				s-0.07-0.36-0.04-0.57c0.04-0.37,0.16-0.66,0.35-0.87c0.19-0.21,0.41-0.36,0.67-0.47c0.26-0.1,0.53-0.16,0.81-0.19
				c0.28-0.03,0.54-0.04,0.78-0.04h0.25l0.02-0.13c0.04-0.32-0.01-0.57-0.16-0.73c-0.15-0.16-0.37-0.25-0.67-0.25
				c-0.21,0-0.42,0.04-0.63,0.12c-0.21,0.08-0.4,0.2-0.57,0.37L297.79,41.06z M299.43,42.81c-0.41,0-0.74,0.07-1,0.2
				c-0.26,0.13-0.41,0.35-0.44,0.66c-0.03,0.28,0.02,0.48,0.17,0.59c0.15,0.12,0.34,0.18,0.58,0.18c0.19,0,0.35-0.04,0.5-0.11
				c0.15-0.07,0.28-0.17,0.39-0.29c0.11-0.12,0.2-0.26,0.27-0.42c0.07-0.16,0.12-0.33,0.14-0.52l0.03-0.28H299.43z"/>
			<path class="st9" d="M302.47,37.75h0.64l-0.41,3.39h0.02c0.21-0.24,0.43-0.43,0.68-0.56c0.25-0.13,0.51-0.2,0.79-0.2
				c0.3,0,0.57,0.06,0.8,0.18c0.23,0.12,0.43,0.28,0.58,0.49c0.15,0.21,0.26,0.46,0.32,0.74c0.06,0.28,0.07,0.6,0.03,0.93
				c-0.04,0.34-0.12,0.65-0.26,0.93c-0.13,0.29-0.3,0.53-0.5,0.74c-0.2,0.21-0.42,0.37-0.67,0.49c-0.25,0.12-0.51,0.18-0.78,0.18
				c-0.34,0-0.64-0.09-0.88-0.26c-0.24-0.17-0.4-0.39-0.5-0.64h-0.02l-0.09,0.79h-0.64L302.47,37.75z M302.5,42.72
				c-0.03,0.23-0.02,0.45,0.02,0.65c0.04,0.2,0.11,0.37,0.21,0.52c0.1,0.15,0.23,0.27,0.39,0.35c0.16,0.09,0.34,0.13,0.55,0.13
				c0.21,0,0.4-0.04,0.58-0.13c0.18-0.09,0.34-0.2,0.47-0.35c0.14-0.15,0.25-0.32,0.34-0.52c0.09-0.2,0.15-0.42,0.17-0.65
				c0.03-0.23,0.02-0.45-0.02-0.65c-0.04-0.2-0.11-0.37-0.21-0.52c-0.1-0.15-0.23-0.27-0.39-0.35c-0.16-0.09-0.34-0.13-0.55-0.13
				c-0.21,0-0.4,0.04-0.58,0.13c-0.18,0.09-0.34,0.2-0.47,0.35c-0.14,0.15-0.25,0.32-0.34,0.52
				C302.59,42.27,302.53,42.48,302.5,42.72z"/>
			<path class="st9" d="M307.58,37.75h0.64l-0.87,7.2h-0.64L307.58,37.75z"/>
			<path class="st9" d="M312.14,44.14c-0.27,0.34-0.55,0.58-0.84,0.72s-0.62,0.2-0.98,0.2c-0.3,0-0.57-0.06-0.79-0.19
				s-0.41-0.29-0.55-0.5c-0.14-0.21-0.24-0.46-0.3-0.74c-0.06-0.28-0.06-0.59-0.02-0.91c0.04-0.34,0.13-0.66,0.27-0.95
				c0.13-0.29,0.3-0.54,0.5-0.74c0.2-0.21,0.43-0.37,0.68-0.48c0.25-0.11,0.52-0.17,0.81-0.17c0.27,0,0.51,0.05,0.72,0.16
				s0.39,0.26,0.52,0.46c0.13,0.2,0.23,0.44,0.28,0.73c0.05,0.29,0.06,0.62,0.02,0.99l-0.03,0.24h-3.1
				c-0.01,0.19,0.01,0.37,0.05,0.55c0.05,0.18,0.12,0.33,0.21,0.46c0.09,0.13,0.21,0.23,0.35,0.31c0.14,0.08,0.3,0.11,0.47,0.11
				c0.28,0,0.52-0.06,0.73-0.17c0.2-0.11,0.4-0.28,0.58-0.5L312.14,44.14z M311.82,42.32c0.03-0.38-0.04-0.69-0.21-0.91
				c-0.17-0.23-0.44-0.34-0.79-0.34c-0.36,0-0.66,0.11-0.91,0.34c-0.25,0.23-0.42,0.53-0.51,0.91H311.82z"/>
			<path class="st9" d="M316.47,44.16h-0.02c-0.15,0.25-0.36,0.47-0.64,0.64c-0.28,0.18-0.6,0.26-0.94,0.26
				c-0.27,0-0.51-0.06-0.73-0.18c-0.22-0.12-0.4-0.28-0.55-0.49c-0.15-0.21-0.26-0.46-0.32-0.74c-0.07-0.29-0.08-0.6-0.04-0.93
				c0.04-0.34,0.12-0.65,0.26-0.93c0.13-0.29,0.3-0.53,0.5-0.74c0.2-0.21,0.44-0.37,0.7-0.49c0.26-0.12,0.54-0.18,0.85-0.18
				c0.28,0,0.53,0.07,0.74,0.2c0.22,0.13,0.4,0.32,0.55,0.56h0.02l0.41-3.39h0.64l-0.87,7.2h-0.64L316.47,44.16z M316.65,42.72
				c0.03-0.23,0.02-0.45-0.02-0.65c-0.04-0.2-0.11-0.37-0.21-0.52c-0.1-0.15-0.23-0.27-0.39-0.35c-0.16-0.09-0.34-0.13-0.55-0.13
				c-0.21,0-0.4,0.04-0.58,0.13c-0.18,0.09-0.34,0.2-0.47,0.35c-0.14,0.15-0.25,0.32-0.34,0.52c-0.09,0.2-0.15,0.42-0.18,0.65
				c-0.03,0.23-0.02,0.45,0.02,0.65c0.04,0.2,0.11,0.37,0.21,0.52c0.1,0.15,0.23,0.27,0.39,0.35c0.16,0.09,0.34,0.13,0.55,0.13
				c0.21,0,0.4-0.04,0.58-0.13c0.18-0.09,0.34-0.2,0.47-0.35c0.14-0.15,0.25-0.32,0.34-0.52C316.56,43.17,316.62,42.95,316.65,42.72
				z"/>
		</g>
	</g>
</g>
</svg>
